<?xml version="1.0" encoding="UTF-8"?><svg id="Layer_1" xmlns="http://www.w3.org/2000/svg" xmlns:xlink="http://www.w3.org/1999/xlink" viewBox="0 0 698.5 684"><defs><style>.cls-1{fill:url(#linear-gradient-2);}.cls-2{fill:url(#linear-gradient-6);}.cls-3{fill:url(#linear-gradient-5);}.cls-4{fill:url(#linear-gradient-3);}.cls-5{fill:url(#linear-gradient);}.cls-6{fill:url(#linear-gradient-4);}.cls-7{fill:#58595b;}</style><linearGradient id="linear-gradient" x1="1541.25" y1="874.52" x2="1420.62" y2="590.05" gradientTransform="translate(1743.33 1006.35) rotate(-180)" gradientUnits="userSpaceOnUse"><stop offset="0" stop-color="#00209f"/><stop offset="1" stop-color="#009efd"/></linearGradient><linearGradient id="linear-gradient-2" x1="1313.26" y1="59.59" x2="1192.64" y2="-224.88" gradientTransform="translate(379.37 1388.25) rotate(-90)" xlink:href="#linear-gradient"/><linearGradient id="linear-gradient-3" x1="495.12" y1="311.86" x2="374.49" y2="27.4" gradientTransform="matrix(1,0,0,1,0,0)" xlink:href="#linear-gradient"/><linearGradient id="linear-gradient-4" x1="551.78" y1="246.17" x2="290.4" y2="482.11" gradientUnits="userSpaceOnUse"><stop offset="0" stop-color="#7ef525"/><stop offset="1" stop-color="#7eef25"/></linearGradient><linearGradient id="linear-gradient-5" x1="375.83" y1="413.01" x2="538.31" y2="148.81" gradientUnits="userSpaceOnUse"><stop offset="0" stop-color="#4ecf00"/><stop offset="1" stop-color="#7eef25"/></linearGradient><linearGradient id="linear-gradient-6" x1="387.47" y1="408.4" x2="523.1" y2="272.77" gradientUnits="userSpaceOnUse"><stop offset="0" stop-color="#31ad00"/><stop offset="1" stop-color="#4ecf00"/></linearGradient></defs><path class="cls-7" d="m97.67,491.52c46.1,0,69.8,26.31,69.8,26.31l-21.1,34.38s-20.84-19.01-46.62-19.01c-35.68,0-52.61,26.31-52.61,53.13s18.23,56,52.61,56c28.13,0,49.49-22.92,49.49-22.92l23.44,33.34s-26.31,31.25-75.01,31.25c-58.34,0-97.67-41.41-97.67-96.63s41.67-95.85,97.67-95.85Z"/><path class="cls-7" d="m255.23,543.61c39.59,0,61.99,27.61,61.99,64.85,0,4.43-1.04,14.06-1.04,14.06h-84.65c3.39,16.41,16.93,23.96,31.25,23.96,19.27,0,36.98-13.54,36.98-13.54l16.67,31.51s-21.62,19.53-57.3,19.53c-47.92,0-73.71-34.64-73.71-70.32,0-39.33,26.57-70.06,69.8-70.06Zm16.67,53.13c0-10.16-7.03-19.27-17.71-19.27-13.02,0-19.27,9.38-21.62,19.27h39.33Z"/><path class="cls-7" d="m341.7,546.74h43.24v22.66c0,4.43-.52,8.33-.52,8.33h.52c5.73-18.23,22.66-33.34,42.71-33.34,2.6,0,5.21.52,5.21.52v44.28s-3.65-.78-9.12-.78c-10.68,0-28.13,3.39-34.64,23.44-1.56,4.95-2.34,10.94-2.34,18.23v50.79h-45.06v-134.13Z"/><path class="cls-7" d="m513.85,543.61c39.59,0,61.99,27.61,61.99,64.85,0,4.43-1.04,14.06-1.04,14.06h-84.65c3.39,16.41,16.93,23.96,31.25,23.96,19.27,0,36.98-13.54,36.98-13.54l16.67,31.51s-21.62,19.53-57.3,19.53c-47.92,0-73.71-34.64-73.71-70.32,0-39.33,26.57-70.06,69.8-70.06Zm16.67,53.13c0-10.16-7.03-19.27-17.71-19.27-13.02,0-19.27,9.38-21.62,19.27h39.33Z"/><path class="cls-7" d="m609.17,633.99s14.85,13.54,34.12,13.54c6.77,0,13.28-1.82,13.28-6.25,0-11.72-62.77-13.02-62.77-56.78,0-25.26,24.22-40.89,55.22-40.89s47.14,15.37,47.14,15.37l-15.37,32.04s-13.02-10.94-31.78-10.94c-6.77,0-13.28,1.82-13.28,6.51,0,10.16,62.77,11.72,62.77,54.96,0,22.92-20.32,42.45-54.96,42.45s-53.65-19.79-53.65-19.79l19.27-30.21Z"/><path class="cls-5" d="m129.18,45.35c-1.35,5-2.09,10.24-2.09,15.65v322.39c0,33.17,27.14,60.31,60.31,60.31h322.39c3.73,0,7.38-.36,10.93-1.02-207.33-23.05-371.47-189.12-391.54-397.33Z"/><path class="cls-1" d="m525.44,2.09C520.45.73,515.2,0,509.79,0H187.41c-33.17,0-60.31,27.14-60.31,60.31v322.39c0,3.73.36,7.38,1.02,10.93C151.16,186.3,317.23,22.15,525.44,2.09Z"/><path class="cls-4" d="m568.02,398.35c1.35-5,2.09-10.24,2.09-15.65V60.31c0-33.17-27.14-60.31-60.31-60.31H187.41c-3.73,0-7.38.36-10.93,1.02,207.33,23.05,371.47,189.12,391.54,397.33Z"/><path class="cls-6" d="m171.76,441.61c5,1.35,10.24,2.09,15.65,2.09h322.39c33.17,0,60.31-27.14,60.31-60.31V61c0-3.73-.36-7.38-1.02-10.93-88.88,194.45-187.78,302.72-397.33,391.54Z"/><path class="cls-3" d="m171.76,441.61c5,1.35,10.24,2.09,15.65,2.09h322.39c33.17,0,60.31-27.14,60.31-60.31V61c0-3.73-.36-7.38-1.02-10.93-23.05,207.33-189.12,371.47-397.33,391.54Z"/><path class="cls-2" d="m171.76,441.61c5,1.35,10.24,2.09,15.65,2.09h322.39c33.17,0,60.31-27.14,60.31-60.31V61c0-3.73-.36-7.38-1.02-10.93,0,391.54.99,391.54-397.33,391.54Z"/></svg>