<?xml version="1.0" encoding="UTF-8"?><svg id="Layer_1" xmlns="http://www.w3.org/2000/svg" xmlns:xlink="http://www.w3.org/1999/xlink" viewBox="0 0 1005.22 254.39"><defs><style>.cls-1{fill:url(#linear-gradient-2);}.cls-2{fill:url(#linear-gradient-6);}.cls-3{fill:url(#linear-gradient-5);}.cls-4{fill:url(#linear-gradient-3);}.cls-5{fill:url(#linear-gradient);}.cls-6{fill:url(#linear-gradient-4);}.cls-7{fill:#58595b;}</style><linearGradient id="linear-gradient" x1="2008.36" y1="449.59" x2="1939.2" y2="286.49" gradientTransform="translate(2051.35 525.18) rotate(-180)" gradientUnits="userSpaceOnUse"><stop offset="0" stop-color="#00209f"/><stop offset="1" stop-color="#009efd"/></linearGradient><linearGradient id="linear-gradient-2" x1="1258.68" y1="-595.16" x2="1189.52" y2="-758.26" gradientTransform="translate(773.97 1301.67) rotate(-90)" xlink:href="#linear-gradient"/><linearGradient id="linear-gradient-3" x1="211.01" y1="178.8" x2="141.85" y2="15.71" gradientTransform="matrix(1,0,0,1,0,0)" xlink:href="#linear-gradient"/><linearGradient id="linear-gradient-4" x1="243.49" y1="141.14" x2="93.63" y2="276.42" gradientUnits="userSpaceOnUse"><stop offset="0" stop-color="#7ef525"/><stop offset="1" stop-color="#7eef25"/></linearGradient><linearGradient id="linear-gradient-5" x1="142.61" y1="236.8" x2="235.77" y2="85.32" gradientUnits="userSpaceOnUse"><stop offset="0" stop-color="#4ecf00"/><stop offset="1" stop-color="#7eef25"/></linearGradient><linearGradient id="linear-gradient-6" x1="149.28" y1="234.15" x2="227.05" y2="156.39" gradientUnits="userSpaceOnUse"><stop offset="0" stop-color="#31ad00"/><stop offset="1" stop-color="#4ecf00"/></linearGradient></defs><path class="cls-7" d="m404.39,30.96c46.1,0,69.8,26.31,69.8,26.31l-21.1,34.38s-20.84-19.01-46.62-19.01c-35.68,0-52.61,26.31-52.61,53.13s18.23,56,52.61,56c28.13,0,49.49-22.92,49.49-22.92l23.44,33.34s-26.31,31.25-75.01,31.25c-58.34,0-97.67-41.41-97.67-96.63s41.67-95.85,97.67-95.85Z"/><path class="cls-7" d="m561.95,83.05c39.59,0,61.99,27.61,61.99,64.85,0,4.43-1.04,14.06-1.04,14.06h-84.65c3.39,16.41,16.93,23.96,31.25,23.96,19.27,0,36.98-13.54,36.98-13.54l16.67,31.51s-21.62,19.53-57.3,19.53c-47.92,0-73.71-34.64-73.71-70.32,0-39.33,26.57-70.06,69.8-70.06Zm16.67,53.13c0-10.16-7.03-19.27-17.71-19.27-13.02,0-19.27,9.38-21.62,19.27h39.33Z"/><path class="cls-7" d="m648.41,86.17h43.24v22.66c0,4.43-.52,8.33-.52,8.33h.52c5.73-18.23,22.66-33.34,42.71-33.34,2.6,0,5.21.52,5.21.52v44.28s-3.65-.78-9.12-.78c-10.68,0-28.13,3.39-34.64,23.44-1.56,4.95-2.34,10.94-2.34,18.23v50.79h-45.06V86.17Z"/><path class="cls-7" d="m820.57,83.05c39.59,0,61.99,27.61,61.99,64.85,0,4.43-1.04,14.06-1.04,14.06h-84.65c3.39,16.41,16.93,23.96,31.25,23.96,19.27,0,36.98-13.54,36.98-13.54l16.67,31.51s-21.62,19.53-57.3,19.53c-47.92,0-73.71-34.64-73.71-70.32,0-39.33,26.57-70.06,69.8-70.06Zm16.67,53.13c0-10.16-7.03-19.27-17.71-19.27-13.02,0-19.27,9.38-21.62,19.27h39.33Z"/><path class="cls-7" d="m915.89,173.43s14.85,13.54,34.12,13.54c6.77,0,13.28-1.82,13.28-6.25,0-11.72-62.77-13.02-62.77-56.78,0-25.26,24.22-40.89,55.22-40.89s47.14,15.37,47.14,15.37l-15.37,32.04s-13.02-10.94-31.78-10.94c-6.77,0-13.28,1.82-13.28,6.51,0,10.16,62.77,11.72,62.77,54.96,0,22.92-20.32,42.45-54.96,42.45s-53.65-19.79-53.65-19.79l19.27-30.21Z"/><path class="cls-5" d="m1.2,26c-.78,2.87-1.2,5.87-1.2,8.97v184.84c0,19.02,15.56,34.58,34.58,34.58h184.84c2.14,0,4.23-.21,6.26-.58C106.81,240.59,12.7,145.38,1.2,26Z"/><path class="cls-1" d="m228.39,1.2C225.53.42,222.52,0,219.42,0H34.58C15.56,0,0,15.56,0,34.58v184.84c0,2.14.21,4.23.58,6.26C13.8,106.81,109.01,12.7,228.39,1.2Z"/><path class="cls-4" d="m252.8,228.39c.78-2.87,1.2-5.87,1.2-8.97V34.58c0-19.02-15.56-34.58-34.58-34.58H34.58c-2.14,0-4.23.21-6.26.58,118.87,13.22,212.98,108.43,224.49,227.81Z"/><path class="cls-6" d="m25.61,253.2c2.87.78,5.87,1.2,8.97,1.2h184.84c19.02,0,34.58-15.56,34.58-34.58V34.97c0-2.14-.21-4.23-.58-6.26-50.96,111.49-107.66,173.57-227.81,224.49Z"/><path class="cls-3" d="m25.61,253.2c2.87.78,5.87,1.2,8.97,1.2h184.84c19.02,0,34.58-15.56,34.58-34.58V34.97c0-2.14-.21-4.23-.58-6.26-13.22,118.87-108.43,212.98-227.81,224.49Z"/><path class="cls-2" d="m25.61,253.2c2.87.78,5.87,1.2,8.97,1.2h184.84c19.02,0,34.58-15.56,34.58-34.58V34.97c0-2.14-.21-4.23-.58-6.26,0,224.49.57,224.49-227.81,224.49Z"/></svg>